<?xml version="1.0" encoding="utf-8"?>
<!-- Generator: Adobe Illustrator 21.1.0, SVG Export Plug-In . SVG Version: 6.00 Build 0)  -->
<svg version="1.1"
	 id="svg2989" inkscape:version="0.48.3.1 r9886" sodipodi:docname="cloud_font_awesome.svg" xmlns:cc="http://creativecommons.org/ns#" xmlns:dc="http://purl.org/dc/elements/1.1/" xmlns:inkscape="http://www.inkscape.org/namespaces/inkscape" xmlns:rdf="http://www.w3.org/1999/02/22-rdf-syntax-ns#" xmlns:sodipodi="http://sodipodi.sourceforge.net/DTD/sodipodi-0.dtd" xmlns:svg="http://www.w3.org/2000/svg"
	 xmlns="http://www.w3.org/2000/svg" xmlns:xlink="http://www.w3.org/1999/xlink" x="0px" y="0px" viewBox="0 0 612 792"
	 style="enable-background:new 0 0 612 792;" xml:space="preserve">
<style type="text/css">
	.Graphic_x0020_Style{fill:none;}
	.st0{fill:#FFFFFF;stroke:#00ABE9;stroke-width:6;stroke-miterlimit:10;}
</style>
<sodipodi:namedview  bordercolor="#666666" borderopacity="1" gridtolerance="10" guidetolerance="10" id="namedview2995" inkscape:current-layer="svg2989" inkscape:cx="960" inkscape:cy="896" inkscape:pageopacity="0" inkscape:pageshadow="2" inkscape:window-height="480" inkscape:window-maximized="0" inkscape:window-width="640" inkscape:window-x="0" inkscape:window-y="25" inkscape:zoom="0.13169643" objecttolerance="10" pagecolor="#ffffff" showgrid="false">
	</sodipodi:namedview>
<g id="g2991" transform="matrix(1,0,0,-1,15.186441,1405.4576)">
	<path id="path2993" inkscape:connector-curvature="0" class="st0" d="M591.4,939.5c0-33.3-11.8-61.7-35.3-85.2S504.2,819,470.9,819
		H129.4c-38.7,0-71.8,13.8-99.3,41.3s-41.3,60.6-41.3,99.3c0,27.6,7.4,52.9,22.3,75.8s34.4,40,58.7,51.3c-0.4,5.9-0.6,10.4-0.6,13.5
		c0,44.4,15.7,82.2,47.1,113.6s69.3,47.1,113.6,47.1c33.1,0,63-9.2,89.9-27.6s46.5-42.5,58.8-72.2c14.6,13,32,19.5,52.1,19.5
		c22.2,0,41.1-7.8,56.8-23.5c15.7-15.7,23.5-34.6,23.5-56.8c0-15.7-4.3-30.1-12.9-43.3c27-6.3,49.3-20.3,66.8-42.2
		C582.6,992.8,591.4,967.8,591.4,939.5z"/>
</g>
</svg>
