<?xml version="1.0" encoding="utf-8"?>
<!-- Generator: Adobe Illustrator 21.1.0, SVG Export Plug-In . SVG Version: 6.00 Build 0)  -->
<svg version="1.1" id="Layer_1" xmlns="http://www.w3.org/2000/svg" xmlns:xlink="http://www.w3.org/1999/xlink" x="0px" y="0px"
	 viewBox="0 0 500 500" style="enable-background:new 0 0 500 500;" xml:space="preserve">
<style type="text/css">
	.st0{font-family:'Justtellmewhat';}
	.st1{font-size:118.8678px;}
	.st2{fill:none;stroke:#000000;stroke-miterlimit:10;}
</style>
<text transform="matrix(0.9896 -0.1438 0.1438 0.9896 83.4291 435.2162)" class="st0 st1">That’s Me</text>
<path class="st2" d="M95.9,115.8"/>
<g>
	<path d="M302.6,321.3c2.3-8.5,4.1-17.1,5.4-25.9c1.3-8.7,2.2-17.5,2.6-26.2c0.3-8.8,0.2-17.6-0.4-26.3c-0.7-8.7-1.9-17.4-3.7-26
		c-3.5-17.1-9.3-33.8-17.4-49.2c-8.2-15.4-18.3-29.7-30.6-42.1c-12.2-12.4-25.9-23.3-40.8-32.4c-7.3-4.7-15-8.9-22.7-13
		c-7.7-4.1-15.6-8-23.5-11.8c-15.7-7.7-31.9-14.4-48.6-19.7c-8.3-2.7-16.8-5.1-25.3-7.2c-8.5-2.1-17.2-3.9-25.8-5.6l0.1-0.7
		c17.7,1.2,35.2,4.2,52.4,8.7c8.6,2.2,17.1,4.9,25.5,7.9c8.4,3,16.6,6.5,24.7,10.2c16.1,7.3,32,15.4,47,25.3c3.8,2.4,7.4,5.1,11,7.6
		c1.8,1.3,3.5,2.7,5.3,4.1l2.7,2.1c0.9,0.7,1.7,1.4,2.6,2.2l5.1,4.3c1.7,1.5,3.3,3,4.9,4.6c3.3,3,6.4,6.3,9.5,9.5
		c12.3,13,22.4,28,30.5,43.9c8,16,13.6,33.1,16.8,50.6c1.6,8.8,2.6,17.6,3.1,26.5c0.4,8.9,0.3,17.8-0.2,26.6
		c-1.2,17.7-4.3,35.2-9.4,52.2L302.6,321.3z"/>
</g>
<g>
	<path d="M146.5,111c-15.1-8.3-29.4-17.9-42.8-29c-6.6-5.6-13-11.5-18.9-17.8c-3-3.2-5.9-6.4-8.6-9.8c-1.4-1.7-2.8-3.4-4.1-5.3
		c-1.3-1.9-2.6-4-3.3-6.5c-0.4-1.3-0.6-2.7-0.5-4.1c0.1-1.4,0.5-2.8,1-4.1c1.2-2.6,3.1-4.5,5-6c2-1.5,4.1-2.7,6.1-3.6
		c2.1-0.9,4.3-1.9,6.4-2.5c8.6-2.7,17.3-3.9,26-4.6c4.3-0.3,8.7-0.5,13-0.6c4.3,0,8.7-0.1,13,0.1c8.6,0.2,17.3,0.8,25.8,1.9l0,0.7
		c-8.6,0.9-17.1,1.5-25.7,2.3c-2.1,0.2-4.3,0.4-6.4,0.6c-2.1,0.2-4.3,0.4-6.4,0.6l-6.4,0.6c-2.1,0.3-4.2,0.5-6.3,0.8
		c-8.4,1.1-16.8,2.2-24.7,4.3c-2,0.4-3.8,1.2-5.7,1.8c-1.9,0.8-3.6,1.6-5.1,2.6c-1.5,1-2.7,2.2-3.4,3.5c-0.7,1.3-0.9,2.7-0.5,4.3
		c0.4,1.6,1.3,3.3,2.3,5c1.1,1.7,2.3,3.4,3.6,5.1c2.6,3.4,5.2,6.7,8,9.9c5.6,6.4,11.6,12.5,17.9,18.2c6.3,5.8,12.9,11.2,19.7,16.4
		c6.8,5.1,13.9,10,21.1,14.6L146.5,111z"/>
</g>
</svg>
